<svg width="32" height="24" fill="none" xmlns="http://www.w3.org/2000/svg"><path d="M31.24 3.905l.039.262c-.384-1.372-1.42-2.43-2.738-2.816l-.028-.007C26.035.667 16.066.667 16.066.667S6.122.653 3.62 1.344A4.045 4.045 0 00.862 4.14l-.007.028c-.925 4.868-.932 10.717.041 15.93l-.04-.265c.383 1.372 1.42 2.43 2.737 2.816l.028.007c2.475.678 12.447.678 12.447.678s9.942 0 12.446-.678a4.044 4.044 0 002.76-2.795l.006-.028c.421-2.264.662-4.87.662-7.53l-.001-.295.001-.307a43.3 43.3 0 00-.703-7.795zM12.885 16.868V7.144l8.297 4.87-8.297 4.854z" fill="#fff"/></svg>